<?xml version="1.0" encoding="iso-8859-1"?>
<!DOCTYPE svg PUBLIC "-//W3C//DTD SVG 1.1//EN" "http://www.w3.org/Graphics/SVG/1.1/DTD/svg11.dtd">
<svg xmlns="http://www.w3.org/2000/svg" xmlns:xlink="http://www.w3.org/1999/xlink" version="1.1" viewBox="0 0 287.114 287.114" enable-background="new 0 0 287.114 287.114" width="512px" height="512px">
  <g>
    <path d="m284.106,29.591c-12.718-24.416-78.426-33.13-131.491-21.696-2.726,0.587-4.783,2.831-5.128,5.598l-3.258,26.086c-0.271,2.167 0.555,4.326 2.202,5.76l28.48,24.789c1.498,1.304 2.324,3.215 2.248,5.199l-1.206,31.346c-0.116,3.028 1.856,5.741 4.772,6.564l32.348,9.129c2.853,0.805 4.811,3.424 4.777,6.388l-.233,20.129c-0.018,1.573 0.896,3.007 2.329,3.656 1.433,0.648 3.114,0.388 4.283-0.664 40.894-36.763 72.839-97.401 59.877-122.284z" fill="#FFFFFF"/>
    <path d="m101.751,114.734c-1.904-2.357-1.946-5.711-0.101-8.115l21.733-28.313c1.209-1.575 1.639-3.613 1.171-5.542l-9.095-37.422c-0.516-2.122 0.059-4.361 1.532-5.973l18.36-20.09c0.747-0.818 1.014-1.965 0.7-3.028-0.314-1.062-1.162-1.882-2.234-2.161-4.751-1.236-9.439-2.189-14.017-2.815-59.344-8.118-112.658,23.36-119.081,70.309-6.423,46.949 36.478,91.589 95.822,99.707 1.765,0.241 3.56,0.439 5.381,0.596 2.803,0.242 5.538-1.011 7.191-3.288l14.158-19.51c1.741-2.399 1.656-5.668-0.207-7.973l-21.313-26.382z" fill="#FFFFFF"/>
    <path d="m170.471,140.926c-1.577-2.152-4.302-3.134-6.89-2.483-2.588,0.651-4.524,2.805-4.895,5.448-2.367,16.854-9.015,44.734-27.6,75.453-8.338,13.782-8.605,30.986-0.702,45.022 7.904,14.036 22.755,22.748 38.863,22.748h8.888c13.496,0 26.179-6.449 34.133-17.352 7.954-10.903 10.226-24.954 6.105-37.806-7.866-24.539-22.125-55.858-47.902-91.03z" fill="#FFFFFF"/>
  </g>
</svg>
